<?xml version="1.0" encoding="UTF-8"?>
<svg version="1.1" xmlns="http://www.w3.org/2000/svg" width="727" height="145">
<path d="M0 0 C1.12341797 -0.01998047 2.24683594 -0.03996094 3.40429688 -0.06054688 C4.48904297 -0.05990234 5.57378906 -0.05925781 6.69140625 -0.05859375 C7.67439697 -0.06044678 8.6573877 -0.0622998 9.67016602 -0.06420898 C13.33127043 0.59953778 14.83316541 1.78557568 17.4375 4.4375 C18.85364171 6.85345906 20.06833269 9.15186373 21.234375 11.6796875 C21.92814579 13.12380062 22.62283376 14.56747342 23.31835938 16.01074219 C23.66890381 16.74707886 24.01944824 17.48341553 24.38061523 18.24206543 C26.03269039 21.6738709 27.77189211 25.05940008 29.515625 28.4453125 C29.8539032 29.10468811 30.1921814 29.76406372 30.54071045 30.44342041 C31.58801173 32.48395556 32.63744767 34.5233793 33.6875 36.5625 C34.05500366 37.27672119 34.42250732 37.99094238 34.80114746 38.72680664 C39.32965937 47.52000519 43.91772633 56.27203312 48.6875 64.9375 C53.07877528 72.92794379 57.42345285 80.9407884 61.6875 89 C62.26145508 90.06605469 62.83541016 91.13210937 63.42675781 92.23046875 C63.95108398 93.22820312 64.47541016 94.2259375 65.015625 95.25390625 C65.48387695 96.13506104 65.95212891 97.01621582 66.43457031 97.92407227 C67.51182157 100.62375622 67.63773145 102.55901137 67.4375 105.4375 C63.62526488 105.55495244 59.81350318 105.62516603 56 105.6875 C54.93072266 105.72101563 53.86144531 105.75453125 52.75976562 105.7890625 C45.91950809 105.87273537 40.20690207 105.37780756 34.4375 101.4375 C32.1328125 98.7109375 32.1328125 98.7109375 30.5625 95.8125 C28.21377275 91.5033967 28.21377275 91.5033967 24.4375 88.4375 C21.90163152 88.19756345 19.46533969 88.06496781 16.92578125 88.0234375 C16.19755661 88.00407135 15.46933197 87.9847052 14.71903992 87.9647522 C12.39614525 87.90503624 10.07320081 87.85860383 7.75 87.8125 C6.17380668 87.77431279 4.59763405 87.73526062 3.02148438 87.6953125 C-0.83967535 87.59934152 -4.70093276 87.51528151 -8.5625 87.4375 C-7.76439994 80.30677767 -6.5131192 75.881038 -1.5625 70.4375 C3.04652476 67.0413765 7.81272874 65.90623094 13.4375 65.4375 C12.47435606 59.25534604 9.44645301 54.23086151 6.5625 48.75 C6.01980469 47.69232422 5.47710937 46.63464844 4.91796875 45.54492188 C4.39074219 44.53623047 3.86351562 43.52753906 3.3203125 42.48828125 C2.83965332 41.56700439 2.35899414 40.64572754 1.86376953 39.6965332 C0.48717368 37.17636483 0.48717368 37.17636483 -2.5625 35.4375 C-6.94543352 42.10939299 -10.58553829 49.10623096 -14.2076416 56.20706177 C-15.62016358 58.9754907 -17.04115848 61.73953975 -18.4616394 64.50389099 C-19.51409178 66.55233202 -20.56542085 68.6013469 -21.61669922 70.65039062 C-24.16321254 75.61008545 -26.72765338 80.56017151 -29.3125 85.5 C-29.69365967 86.23516846 -30.07481934 86.97033691 -30.4675293 87.7277832 C-37.78361063 101.6731841 -37.78361063 101.6731841 -43.921875 104.5390625 C-49.26279741 105.85710129 -54.46035733 105.64636673 -59.9375 105.5625 C-61.05511719 105.55347656 -62.17273438 105.54445313 -63.32421875 105.53515625 C-66.07053462 105.51168346 -68.81640472 105.47884728 -71.5625 105.4375 C-72.5625 102.4375 -72.5625 102.4375 -71.12231445 99.04956055 C-70.40060652 97.63571982 -69.66754712 96.22764005 -68.92578125 94.82421875 C-68.53536148 94.06718155 -68.14494171 93.31014435 -67.74269104 92.53016663 C-66.46337378 90.05648966 -65.16952613 87.59074709 -63.875 85.125 C-62.98716194 83.41666895 -62.09995712 81.70800865 -61.21337891 79.99902344 C-56.28141057 70.51569646 -51.26933361 61.07944513 -46.07495117 51.73681641 C-43.02442088 46.21964016 -40.1167291 40.64146661 -37.265625 35.01953125 C-36.88830231 34.27760529 -36.51097961 33.53567932 -36.1222229 32.77127075 C-34.24343882 29.075226 -32.37496529 25.37456838 -30.52294922 21.66503906 C-22.98346341 6.69821057 -22.98346341 6.69821057 -15.97265625 1.52734375 C-10.68010534 -0.16409004 -5.52094038 -0.03496278 0 0 Z " fill="#FFFFFF" transform="translate(362.5625,17.5625)"/>
<path d="M0 0 C1.70542969 -0.05607422 1.70542969 -0.05607422 3.4453125 -0.11328125 C4.54359375 -0.12488281 5.641875 -0.13648437 6.7734375 -0.1484375 C7.77552246 -0.16825684 8.77760742 -0.18807617 9.81005859 -0.20849609 C13.78577718 0.61561209 15.08518607 2.23410448 17.625 5.375 C19.27591921 8.04433755 20.67873116 10.80752853 22.06640625 13.62109375 C22.4705777 14.41978378 22.87474915 15.21847382 23.29116821 16.04136658 C24.15241518 17.74534496 25.00938238 19.45149218 25.86239624 21.15960693 C28.09435786 25.62805363 30.3576226 30.08062272 32.6171875 34.53515625 C33.05828354 35.4068042 33.49937958 36.27845215 33.95384216 37.17651367 C37.12588513 43.43262951 40.40191405 49.62024577 43.8125 55.75 C49.83497147 66.59132559 55.46587443 77.63091175 61.10424805 88.67529297 C61.46292969 89.37638687 61.82161133 90.07748077 62.19116211 90.79981995 C62.87123201 92.12959664 63.54960506 93.46024283 64.22607422 94.79185486 C65.63827824 97.77941936 65.63827824 97.77941936 67.625 100.375 C67.66563832 102.04117115 67.667721 103.70888095 67.625 105.375 C63.79181381 105.46289644 59.95889072 105.51569087 56.125 105.5625 C55.04734375 105.58763672 53.9696875 105.61277344 52.859375 105.63867188 C46.36552023 105.69806689 41.4985398 105.21946165 35.625 102.375 C32.3359129 99.0859129 30.12963022 95.03889579 27.7734375 91.046875 C26.71635286 89.21899588 26.71635286 89.21899588 24.625 88.375 C22.14667341 88.21873424 19.69188669 88.11686802 17.2109375 88.05859375 C16.48129791 88.03781265 15.75165833 88.01703156 14.99990845 87.99562073 C12.66670237 87.93018083 10.33338279 87.87126632 8 87.8125 C6.41925905 87.76930947 4.83852961 87.72569501 3.2578125 87.68164062 C-0.61967504 87.57450519 -4.49727685 87.47322218 -8.375 87.375 C-9.2670911 84.47898083 -9.48431207 83.6544444 -8.3359375 80.71875 C-3.80903824 72.60155132 -0.35550016 68.7441707 8.5390625 65.890625 C10.625 65.375 10.625 65.375 13.625 65.375 C11.21961713 58.39220942 7.94809846 51.85917314 4.5625 45.3125 C4.12695801 44.45487061 3.69141602 43.59724121 3.24267578 42.71362305 C2.82099121 41.90965088 2.39930664 41.10567871 1.96484375 40.27734375 C1.39817993 39.18667603 1.39817993 39.18667603 0.82006836 38.07397461 C-0.34979372 36.05339504 -0.34979372 36.05339504 -3.375 35.375 C-3.64425293 35.89368652 -3.91350586 36.41237305 -4.19091797 36.94677734 C-10.62636006 49.33413515 -17.10365132 61.69965473 -23.61749268 74.04595947 C-24.40871944 75.54665951 -25.19889575 77.04791389 -25.98797607 78.54974365 C-38.53890822 102.42963607 -38.53890822 102.42963607 -47.375 105.375 C-49.29406917 105.45766486 -51.21589474 105.48240663 -53.13671875 105.47265625 C-54.25498047 105.46943359 -55.37324219 105.46621094 -56.52539062 105.46289062 C-57.69263672 105.45451172 -58.85988281 105.44613281 -60.0625 105.4375 C-61.24134766 105.43298828 -62.42019531 105.42847656 -63.63476562 105.42382812 C-66.54822789 105.41203273 -69.46158863 105.3955727 -72.375 105.375 C-71.75427517 101.3451272 -70.46090095 98.17275079 -68.63671875 94.53515625 C-68.07057861 93.40215088 -67.50443848 92.26914551 -66.92114258 91.10180664 C-66.30199996 89.8801658 -65.68244152 88.65873562 -65.0625 87.4375 C-64.42010145 86.16206051 -63.77776829 84.88658809 -63.13549805 83.61108398 C-59.01228577 75.45344922 -54.72483963 67.39774956 -50.28149414 59.40991211 C-46.93720548 53.35486823 -43.74678325 47.23227326 -40.61328125 41.06640625 C-40.19337418 40.24143143 -39.7734671 39.4164566 -39.34083557 38.56648254 C-37.23275924 34.42133956 -35.1342163 30.27171259 -33.0480957 26.11547852 C-24.80297718 9.79578927 -19.513698 0.24172374 0 0 Z " fill="#FFFFFF" transform="translate(649.375,17.625)"/>
<path d="M0 0 C1.10923828 0.00193359 2.21847656 0.00386719 3.36132812 0.00585938 C5.09866211 0.02422852 5.09866211 0.02422852 6.87109375 0.04296875 C8.61422852 0.04393555 8.61422852 0.04393555 10.39257812 0.04492188 C19.02792245 0.0901331 19.02792245 0.0901331 21.30859375 1.23046875 C21.63859375 14.10046875 21.96859375 26.97046875 22.30859375 40.23046875 C31.46029297 40.30394531 31.46029297 40.30394531 40.796875 40.37890625 C44.65691787 40.41428242 48.5169379 40.45023657 52.37695312 40.48828125 C58.50672171 40.54864151 64.63645825 40.60683496 70.76635742 40.65234375 C75.70717614 40.68915839 80.64782101 40.73550789 85.58849144 40.78853226 C87.47554672 40.80709655 89.36263929 40.82219695 91.24975014 40.83381271 C93.88844313 40.85064039 96.52673618 40.87966676 99.1652832 40.91162109 C99.94931015 40.91378128 100.7333371 40.91594147 101.54112244 40.91816711 C105.32446447 40.97688209 107.0831674 41.08018452 110.30859375 43.23046875 C110.6693573 45.78677368 110.6693573 45.78677368 110.64916992 49.05712891 C110.64894333 50.27824371 110.64871674 51.49935852 110.64848328 52.75747681 C110.63316227 54.09483198 110.61751426 55.43218345 110.6015625 56.76953125 C110.59596797 58.13430313 110.59169719 59.49908103 110.58869934 60.86386108 C110.57723915 64.45776982 110.54776246 68.05131542 110.5145874 71.64508057 C110.48391146 75.31151415 110.47019934 78.97800635 110.45507812 82.64453125 C110.42289339 89.84000939 110.37168347 97.03518821 110.30859375 104.23046875 C105.84581065 106.4618603 99.70949043 105.41546574 94.80859375 105.41796875 C93.54660156 105.43021484 92.28460938 105.44246094 90.984375 105.45507812 C89.78167969 105.45701172 88.57898438 105.45894531 87.33984375 105.4609375 C85.67791992 105.46710083 85.67791992 105.46710083 83.98242188 105.47338867 C81.30859375 105.23046875 81.30859375 105.23046875 79.30859375 103.23046875 C79.07494294 100.37751891 78.95907977 97.61435028 78.9296875 94.7578125 C78.91269302 93.91956436 78.89569855 93.08131622 78.87818909 92.21766663 C78.82495788 89.53451092 78.78471249 86.85137153 78.74609375 84.16796875 C78.70222707 81.4810745 78.65557726 78.79430303 78.60328674 76.1075592 C78.57122807 74.43385496 78.54437005 72.76004193 78.52305603 71.08616638 C78.81143497 67.35260057 78.81143497 67.35260057 77.30859375 64.23046875 C75.66215087 64.12656937 74.01127643 64.09194292 72.36157227 64.08520508 C70.77971886 64.0756353 70.77971886 64.0756353 69.16590881 64.06587219 C68.01803391 64.06475937 66.870159 64.06364655 65.6875 64.0625 C63.93215187 64.0575074 63.93215187 64.0575074 62.14134216 64.05241394 C59.66055699 64.04733966 57.17976497 64.04500577 54.69897461 64.04516602 C50.89099956 64.04298018 47.08331432 64.02483124 43.27539062 64.00585938 C40.87109475 64.00292551 38.46679748 64.00094067 36.0625 64 C34.91664932 63.99281448 33.77079865 63.98562897 32.59022522 63.97822571 C31.53250412 63.98130234 30.47478302 63.98437897 29.38500977 63.98754883 C28.45092789 63.98612381 27.51684601 63.98469879 26.55445862 63.98323059 C24.10629667 64.01577545 24.10629667 64.01577545 22.30859375 66.23046875 C22.06277532 69.09483699 21.93489994 71.86950015 21.89453125 74.73828125 C21.8751651 75.57890106 21.85579895 76.41952087 21.83584595 77.28561401 C21.77597717 79.97546178 21.72963604 82.66535218 21.68359375 85.35546875 C21.64542065 87.17710219 21.60636931 88.99871745 21.56640625 90.8203125 C21.47026977 95.29021727 21.38626606 99.76020654 21.30859375 104.23046875 C18.55504415 105.60724355 16.32018966 105.36016564 13.2421875 105.36328125 C12.03498047 105.36457031 10.82777344 105.36585937 9.58398438 105.3671875 C7.68422852 105.36138672 7.68422852 105.36138672 5.74609375 105.35546875 C4.47572266 105.35933594 3.20535156 105.36320312 1.89648438 105.3671875 C0.69056641 105.36589844 -0.51535156 105.36460938 -1.7578125 105.36328125 C-2.87099854 105.36215332 -3.98418457 105.36102539 -5.13110352 105.35986328 C-7.69140625 105.23046875 -7.69140625 105.23046875 -8.69140625 104.23046875 C-8.8027724 101.07515492 -8.84881365 97.94152942 -8.85253906 94.78540039 C-8.85750397 93.79360275 -8.86246887 92.80180511 -8.86758423 91.779953 C-8.88224642 88.48350341 -8.88901416 85.18710191 -8.89453125 81.890625 C-8.90027882 79.60998024 -8.90603659 77.32933551 -8.9118042 75.0486908 C-8.92232538 70.26105523 -8.92816091 65.47343652 -8.93164062 60.68579102 C-8.93713142 54.53721897 -8.96116737 48.38886771 -8.98961258 42.24036503 C-9.00819241 37.52818644 -9.01344204 32.81606155 -9.0149765 28.10384941 C-9.01801349 25.83633655 -9.02607689 23.56882487 -9.03916168 21.30134773 C-9.05612704 18.1357024 -9.05436539 14.97060338 -9.04785156 11.80493164 C-9.05706635 10.85991791 -9.06628113 9.91490417 -9.07577515 8.94125366 C-9.06742142 7.65193184 -9.06742142 7.65193184 -9.05889893 6.33656311 C-9.06036549 5.58752244 -9.06183205 4.83848177 -9.06334305 4.0667429 C-8.13888004 -0.49738607 -3.72426245 -0.01501837 0 0 Z " fill="#FFFFFF" transform="translate(165.69140625,17.76953125)"/>
<path d="M0 0 C5.95802181 1.17881106 10.24830182 3.03451712 14 8 C17.64824643 15.41110911 17.47529465 22.65208731 17.51171875 30.78125 C17.52858938 32.20472743 17.54674279 33.62819018 17.56611633 35.05163574 C17.61336435 38.77347219 17.64333569 42.4952491 17.66955566 46.21728516 C17.69948942 50.02518467 17.74597526 53.83287951 17.79101562 57.640625 C17.87676144 65.09364786 17.94423322 72.54668608 18 80 C18.9513382 80.00364563 19.90267639 80.00729126 20.88284302 80.01104736 C29.85802531 80.04802417 38.83286535 80.10582608 47.80778694 80.18390274 C52.4216769 80.22337473 57.0353761 80.25556453 61.64941406 80.27099609 C66.10410277 80.28616459 70.55826699 80.32061332 75.01272202 80.36830902 C76.71027945 80.38312087 78.40791176 80.39104091 80.1055336 80.39188385 C82.48775075 80.39425594 84.8685213 80.42135257 87.25048828 80.45410156 C87.94892349 80.4490712 88.6473587 80.44404083 89.36695862 80.43885803 C94.33274182 80.54415299 97.15232646 81.92512492 101 85 C104.34402542 89.34265218 106.14062283 93.63356661 106.125 99.0625 C106.12886719 100.41021484 106.12886719 100.41021484 106.1328125 101.78515625 C106 104 106 104 105 105 C103.60961835 105.10191769 102.21412467 105.13517732 100.82002258 105.14044189 C99.91859024 105.14615204 99.0171579 105.15186218 98.08840942 105.15774536 C97.09155121 105.15886322 96.09469299 105.15998108 95.06762695 105.16113281 C94.02373306 105.16609772 92.97983917 105.17106262 91.90431213 105.17617798 C88.43229525 105.1908465 84.9603241 105.19761037 81.48828125 105.203125 C79.08269753 105.20887382 76.67711383 105.21463158 74.27153015 105.22039795 C69.21820867 105.23092213 64.16490317 105.2367551 59.11157227 105.24023438 C52.636066 105.24571358 46.16077059 105.26972357 39.68533039 105.29820633 C34.7122079 105.31683333 29.7391361 105.32203841 24.76598167 105.32357025 C22.37896767 105.32659856 19.9919546 105.33463306 17.60497475 105.34775543 C14.26293581 105.36481228 10.92141053 105.36293597 7.5793457 105.35644531 C6.59260864 105.3656601 5.60587158 105.37487488 4.5892334 105.3843689 C-0.69932494 105.35219874 -4.4415744 104.99217491 -9 102 C-14.24569943 96.47074925 -14.15114739 91.67862817 -14.16113281 84.33178711 C-14.16609772 83.45820053 -14.17106262 82.58461395 -14.17617798 81.68455505 C-14.19076747 78.79880992 -14.19759453 75.91311968 -14.203125 73.02734375 C-14.20887696 71.02242532 -14.21463469 69.0175069 -14.22039795 67.0125885 C-14.2308973 62.81201928 -14.23674765 58.61146916 -14.24023438 54.41088867 C-14.24573166 49.02140712 -14.26979046 43.63217661 -14.29820633 38.24277401 C-14.31679836 34.10359448 -14.32203636 29.96447602 -14.32357025 25.82525826 C-14.32660264 23.83767886 -14.33465078 21.85010069 -14.34775543 19.86256218 C-14.36475201 17.08778387 -14.36295199 14.31362715 -14.35644531 11.53881836 C-14.3656601 10.7143219 -14.37487488 9.88982544 -14.3843689 9.04034424 C-14.34299471 3.42673559 -14.34299471 3.42673559 -12.62595749 1.29049015 C-9.16484373 -1.45652707 -4.1700757 -0.40697263 0 0 Z " fill="#FFFFFF" transform="translate(35,18)"/>
<path d="M0 0 C0.95777344 0.00064453 1.91554688 0.00128906 2.90234375 0.00195312 C9.96860491 0.04680246 9.96860491 0.04680246 12.25 1.1875 C11.62808618 5.66868722 9.8647632 9.33883253 7.8125 13.3125 C7.45833008 14.00915771 7.10416016 14.70581543 6.73925781 15.42358398 C3.20882953 22.33823245 -0.41653989 29.20384424 -4.046875 36.06640625 C-6.97005337 41.59526019 -9.8605466 47.14096667 -12.75 52.6875 C-14.2690089 55.59995991 -15.78845587 58.51219075 -17.30810547 61.42431641 C-18.2319148 63.19466419 -19.15544336 64.96515854 -20.07861328 66.73583984 C-24.88740507 75.95191983 -29.76659887 85.12699582 -34.75 94.25 C-35.21929932 95.11391357 -35.68859863 95.97782715 -36.17211914 96.86791992 C-36.61031982 97.66560791 -37.04852051 98.4632959 -37.5 99.28515625 C-37.88671875 99.99164307 -38.2734375 100.69812988 -38.671875 101.42602539 C-39.75 103.1875 -39.75 103.1875 -41.75 105.1875 C-44.63916016 105.41455078 -44.63916016 105.41455078 -48.2890625 105.3828125 C-50.24199219 105.37314453 -50.24199219 105.37314453 -52.234375 105.36328125 C-53.61458595 105.34656929 -54.99479429 105.32963939 -56.375 105.3125 C-57.76301452 105.30247006 -59.15103589 105.29334423 -60.5390625 105.28515625 C-63.94288026 105.26151863 -67.34635506 105.22856867 -70.75 105.1875 C-72.03781738 102.24177137 -71.73692723 101.15373913 -70.5534668 98.09741211 C-69.94777954 96.8803083 -69.3287384 95.66979344 -68.69921875 94.46484375 C-68.20526863 93.48550873 -68.20526863 93.48550873 -67.70133972 92.48638916 C-66.62494712 90.35982328 -65.53159671 88.24250389 -64.4375 86.125 C-63.68870842 84.65516572 -62.94082789 83.18486697 -62.19384766 81.71411133 C-57.64273513 72.77530244 -53.0232446 63.87111675 -48.3046875 55.01953125 C-46.29608552 51.24267974 -44.33430722 47.44338511 -42.3828125 43.63671875 C-31.65324101 22.7181962 -31.65324101 22.7181962 -26.1875 13.25 C-25.80658203 12.57694824 -25.42566406 11.90389648 -25.03320312 11.21044922 C-22.15286022 6.33100508 -19.23977702 3.35504336 -14.109375 0.94921875 C-9.3821813 -0.12264494 -4.83002086 -0.06277045 0 0 Z " fill="#FFFFFF" transform="translate(560.75,17.8125)"/>
<path d="M0 0 C0.93392578 -0.020625 1.86785156 -0.04125 2.83007812 -0.0625 C10.00530051 -0.10289534 14.65126455 0.72962015 20.39453125 5.30859375 C23.71305806 9.34550924 26.06295895 13.70355709 28.5 18.3125 C29.27512939 19.75459839 29.27512939 19.75459839 30.06591797 21.22583008 C34.08082814 28.74348807 37.93603446 36.3395025 41.69018555 43.99047852 C42.07343994 44.77092529 42.45669434 45.55137207 42.8515625 46.35546875 C43.18365723 47.03762451 43.51575195 47.71978027 43.85791016 48.42260742 C44.90013085 50.49672525 44.90013085 50.49672525 46.8125 53.25 C46.45396943 57.05050253 45.08772139 60.06374236 43.37890625 63.4453125 C42.89486328 64.40824219 42.41082031 65.37117188 41.91210938 66.36328125 C41.40486328 67.35714844 40.89761719 68.35101563 40.375 69.375 C39.87162109 70.37660156 39.36824219 71.37820312 38.84960938 72.41015625 C35.12287621 79.78443568 35.12287621 79.78443568 32.8125 83.25 C30.20108325 82.89995161 29.09173382 82.59108271 27.39501953 80.51855469 C26.95786621 79.74415039 26.52071289 78.96974609 26.0703125 78.171875 C25.29929199 76.8096582 25.29929199 76.8096582 24.51269531 75.41992188 C21.53255247 69.8636073 18.63532226 64.26824896 15.77920532 58.64727783 C9.5121798 46.32065021 3.10841361 34.08403648 -3.57421875 21.9765625 C-3.9923584 21.21504883 -4.41049805 20.45353516 -4.84130859 19.66894531 C-5.82683173 17.89807785 -6.83269285 16.13848715 -7.85009766 14.38574219 C-8.40101074 13.42055664 -8.95192383 12.45537109 -9.51953125 11.4609375 C-10.02846924 10.5848584 -10.53740723 9.7087793 -11.06176758 8.80615234 C-12.27192913 6.0582904 -12.41505824 4.21725282 -12.1875 1.25 C-8.48381753 -0.60184124 -4.07634388 0.02204919 0 0 Z " fill="#FFFFFF" transform="translate(446.1875,17.75)"/>
<path d="M0 0 C0.84925475 3.64230906 1.67642947 7.28930514 2.5 10.9375 C2.73847656 11.95908203 2.97695313 12.98066406 3.22265625 14.03320312 C6.53008448 28.82213223 6.53008448 28.82213223 3.375 35.375 C-0.42957762 39.58005947 -3.8932658 41.14538444 -9.5 41.4375 C-14.89500463 41.24676751 -17.93484461 38.92273088 -21.8125 35.3125 C-23.6719452 31.69147514 -24.43093755 28.05445467 -24 24 C-21.77795893 17.64974691 -17.98202962 13.54938159 -13 9.1875 C-12.38382812 8.62869141 -11.76765625 8.06988281 -11.1328125 7.49414062 C-2.80797452 0 -2.80797452 0 0 0 Z " fill="#9F20EF" transform="translate(274,11)"/>
</svg>
